<svg version="1.1" id="Layer_1" xmlns="http://www.w3.org/2000/svg" xmlns:xlink="http://www.w3.org/1999/xlink" x="0px" y="0px"
	 width="100%" viewBox="0 0 1080 1080" enable-background="new 0 0 1080 1080" xml:space="preserve">
<path fill="#008FD6" opacity="1.000000" stroke="none" 
	d="
M521.000000,1081.000000 
	C347.353302,1081.000000 174.206635,1081.000000 1.029974,1081.000000 
	C1.029974,721.061523 1.029974,361.123047 1.029974,1.092287 
	C360.896912,1.092287 720.793823,1.092287 1080.845459,1.092287 
	C1080.845459,360.999939 1080.845459,720.999939 1080.845459,1081.000000 
	C894.455872,1081.000000 707.977966,1081.000000 521.000000,1081.000000 
M349.109314,341.623474 
	C334.224823,340.563171 319.340363,339.502869 303.752655,338.392487 
	C304.797913,349.465027 305.730133,359.362518 306.667236,369.259552 
	C307.363220,376.609924 307.352234,376.441406 300.177521,377.028503 
	C292.089813,377.690308 284.030182,378.695343 275.444611,379.605560 
	C284.064026,475.272919 292.635559,570.408752 301.215485,665.637939 
	C302.612152,665.637939 303.427643,665.734680 304.213959,665.624084 
	C340.181702,660.563599 376.175446,659.420532 412.207886,664.926575 
	C449.550873,670.632996 484.524994,682.575012 515.865601,704.186157 
	C517.620361,705.396057 520.127625,706.011230 522.296692,706.041687 
	C534.627319,706.214600 546.964478,706.267456 559.292175,706.010803 
	C561.901733,705.956543 564.699402,704.836975 567.035950,703.535828 
	C576.624451,698.196594 585.741638,691.910889 595.620667,687.210144 
	C644.311523,664.041687 695.961975,658.486755 749.074219,662.523071 
	C759.473572,663.313293 769.833191,664.626465 780.722839,665.751282 
	C789.321289,570.317139 797.893005,475.179474 806.502747,379.619873 
	C795.569458,378.438324 785.259705,377.324158 774.665466,376.179260 
	C775.286072,369.551331 775.848083,363.598969 776.399658,357.645630 
	C776.960999,351.586945 777.512085,345.527283 778.131775,338.769257 
	C687.413513,340.968109 605.370972,363.102753 540.883972,430.549591 
	C489.030396,375.574646 423.442871,350.232880 349.109314,341.623474 
M264.111572,674.695618 
	C265.035645,681.798035 266.103210,688.886169 266.815643,696.009766 
	C267.115540,699.008179 268.324310,700.292358 271.270752,700.783386 
	C291.291870,704.120300 311.294281,707.570251 331.295837,711.023376 
	C378.514191,719.175415 425.764526,727.149414 472.930389,735.594849 
	C498.527802,740.178345 524.061157,744.635864 550.235657,743.000305 
	C555.879883,742.647583 561.664551,743.516846 567.201172,742.650940 
	C586.922485,739.566895 606.564636,735.976868 626.236877,732.578857 
	C687.390198,722.015747 748.539856,711.431396 809.706604,700.946899 
	C813.100708,700.365173 814.738831,699.295776 815.226562,695.488708 
	C827.209167,601.956177 839.346924,508.443573 851.440918,414.925293 
	C851.686157,413.028839 851.741577,411.107849 851.891418,409.120239 
	C839.375122,409.120239 827.462708,409.120239 815.195435,409.120239 
	C807.084351,498.939026 799.000793,588.453552 790.869995,678.491272 
	C787.746582,678.165527 785.128967,677.989441 782.541687,677.608154 
	C745.794556,672.191528 708.988281,670.483154 672.093018,676.007507 
	C637.274719,681.220886 604.571533,692.173767 574.989624,711.737976 
	C571.838135,713.822266 567.830383,715.175781 564.063293,715.666504 
	C548.483459,717.696167 532.827942,717.515442 517.240723,715.659668 
	C513.941162,715.266907 510.414062,714.067688 507.662933,712.233398 
	C491.487885,701.448425 474.171783,693.083984 455.768066,686.933838 
	C410.162811,671.693604 363.434296,669.985840 316.124176,675.474243 
	C307.929230,676.424988 299.744598,677.464478 291.077240,678.521301 
	C282.933380,588.335449 274.850952,498.829987 266.757233,409.199493 
	C254.254654,409.199493 242.231293,409.199493 229.754150,409.199493 
	C241.214447,497.717346 252.613831,585.764587 264.111572,674.695618 
z"/>
<path fill="#F9FDFE" opacity="1.000000" stroke="none" 
	d="
M349.558350,341.684479 
	C423.442871,350.232880 489.030396,375.574646 540.883972,430.549591 
	C605.370972,363.102753 687.413513,340.968109 778.131775,338.769257 
	C777.512085,345.527283 776.960999,351.586945 776.399658,357.645630 
	C775.848083,363.598969 775.286072,369.551331 774.665466,376.179260 
	C785.259705,377.324158 795.569458,378.438324 806.502747,379.619873 
	C797.893005,475.179474 789.321289,570.317139 780.722839,665.751282 
	C769.833191,664.626465 759.473572,663.313293 749.074219,662.523071 
	C695.961975,658.486755 644.311523,664.041687 595.620667,687.210144 
	C585.741638,691.910889 576.624451,698.196594 567.035950,703.535828 
	C564.699402,704.836975 561.901733,705.956543 559.292175,706.010803 
	C546.964478,706.267456 534.627319,706.214600 522.296692,706.041687 
	C520.127625,706.011230 517.620361,705.396057 515.865601,704.186157 
	C484.524994,682.575012 449.550873,670.632996 412.207886,664.926575 
	C376.175446,659.420532 340.181702,660.563599 304.213959,665.624084 
	C303.427643,665.734680 302.612152,665.637939 301.215485,665.637939 
	C292.635559,570.408752 284.064026,475.272919 275.444611,379.605560 
	C284.030182,378.695343 292.089813,377.690308 300.177521,377.028503 
	C307.352234,376.441406 307.363220,376.609924 306.667236,369.259552 
	C305.730133,359.362518 304.797913,349.465027 303.752655,338.392487 
	C319.340363,339.502869 334.224823,340.563171 349.558350,341.684479 
M485.188660,667.643372 
	C485.711273,667.698181 486.233917,667.752991 487.543488,667.890320 
	C486.391876,667.096191 485.921692,666.771973 485.005920,665.949707 
	C449.644958,641.382751 410.042297,626.636780 368.704041,616.063416 
	C355.841370,612.773438 342.750732,610.374695 329.323517,607.472656 
	C322.556091,536.361694 315.764954,465.001617 308.942535,393.312988 
	C303.566040,393.801422 298.996887,394.216522 293.908234,394.678833 
	C301.502075,479.033112 309.046814,562.841858 316.606171,646.813110 
	C321.756561,646.365173 326.212799,645.955994 330.672821,645.593079 
	C367.238495,642.617798 403.588135,643.935974 439.283569,652.856201 
	C454.710541,656.711365 469.699280,662.320068 485.188660,667.643372 
M597.835327,667.065125 
	C651.599121,644.743408 707.625793,640.695190 765.337463,646.864380 
	C772.918335,562.637939 780.460022,478.846680 788.045959,394.564087 
	C782.656494,394.141846 777.961060,393.773987 773.034119,393.387970 
	C772.718567,396.460602 772.466125,398.768188 772.246582,401.078918 
	C765.851318,468.375885 759.440796,535.671387 753.122192,602.975586 
	C752.809631,606.305054 752.223572,608.317261 748.260559,608.903564 
	C721.026306,612.932373 694.622498,620.263916 668.794617,629.691772 
	C643.240540,639.019592 618.687622,650.361328 596.013916,666.674805 
	C595.778381,666.982361 595.542847,667.289978 595.307312,667.597534 
	C595.901123,667.432434 596.494934,667.267334 597.835327,667.065125 
M419.803192,613.801392 
	C462.081451,629.368835 501.041931,650.214417 531.927856,685.306335 
	C532.081055,683.073853 532.225037,681.954468 532.225159,680.835083 
	C532.235291,604.335083 532.258362,527.835083 532.119446,451.335388 
	C532.115173,448.953278 530.999146,446.078766 529.435242,444.268494 
	C507.713104,419.123627 480.841217,400.910889 451.024963,386.795349 
	C417.271912,370.816040 381.526398,362.109131 344.537994,358.137482 
	C337.369080,357.367706 330.146271,357.100220 322.926544,356.599548 
	C322.856354,357.978973 322.768066,358.483093 322.814575,358.974487 
	C330.100647,435.934631 337.410736,512.892517 344.637115,589.858276 
	C344.914001,592.807434 346.293945,593.451599 348.918793,594.159058 
	C372.341705,600.472717 395.700653,607.023560 419.803192,613.801392 
M549.770630,640.499939 
	C549.770630,655.070007 549.770630,669.640076 549.770630,685.308594 
	C551.213562,683.947754 551.812988,683.468750 552.310669,682.900513 
	C568.068848,664.908203 586.852417,650.698364 607.525696,638.889282 
	C646.503479,616.624146 688.615723,603.039185 732.412903,594.309082 
	C736.313049,593.531677 737.154175,591.861450 737.469910,588.502014 
	C744.591919,512.731384 751.781921,436.967102 758.938660,361.199707 
	C759.070618,359.802704 758.955139,358.382355 758.955139,356.819611 
	C757.294983,356.819611 756.143616,356.764526 754.998779,356.827606 
	C714.782227,359.042633 675.848206,367.102661 638.833618,383.217163 
	C606.278870,397.390045 577.012817,416.418823 553.214111,443.205383 
	C550.732727,445.998322 549.690369,448.813721 549.696655,452.575226 
	C549.800598,514.883301 549.770630,577.191589 549.770630,640.499939 
z"/>
<path fill="#FCFEFF" opacity="1.000000" stroke="none" 
	d="
M264.062378,674.253723 
	C252.613831,585.764587 241.214447,497.717346 229.754150,409.199493 
	C242.231293,409.199493 254.254654,409.199493 266.757233,409.199493 
	C274.850952,498.829987 282.933380,588.335449 291.077240,678.521301 
	C299.744598,677.464478 307.929230,676.424988 316.124176,675.474243 
	C363.434296,669.985840 410.162811,671.693604 455.768066,686.933838 
	C474.171783,693.083984 491.487885,701.448425 507.662933,712.233398 
	C510.414062,714.067688 513.941162,715.266907 517.240723,715.659668 
	C532.827942,717.515442 548.483459,717.696167 564.063293,715.666504 
	C567.830383,715.175781 571.838135,713.822266 574.989624,711.737976 
	C604.571533,692.173767 637.274719,681.220886 672.093018,676.007507 
	C708.988281,670.483154 745.794556,672.191528 782.541687,677.608154 
	C785.128967,677.989441 787.746582,678.165527 790.869995,678.491272 
	C799.000793,588.453552 807.084351,498.939026 815.195435,409.120239 
	C827.462708,409.120239 839.375122,409.120239 851.891418,409.120239 
	C851.741577,411.107849 851.686157,413.028839 851.440918,414.925293 
	C839.346924,508.443573 827.209167,601.956177 815.226562,695.488708 
	C814.738831,699.295776 813.100708,700.365173 809.706604,700.946899 
	C748.539856,711.431396 687.390198,722.015747 626.236877,732.578857 
	C606.564636,735.976868 586.922485,739.566895 567.201172,742.650940 
	C561.664551,743.516846 555.879883,742.647583 550.235657,743.000305 
	C524.061157,744.635864 498.527802,740.178345 472.930389,735.594849 
	C425.764526,727.149414 378.514191,719.175415 331.295837,711.023376 
	C311.294281,707.570251 291.291870,704.120300 271.270752,700.783386 
	C268.324310,700.292358 267.115540,699.008179 266.815643,696.009766 
	C266.103210,688.886169 265.035645,681.798035 264.062378,674.253723 
z"/>
<path fill="#018FD6" opacity="1.000000" stroke="none" 
	d="
M419.440796,613.653015 
	C395.700653,607.023560 372.341705,600.472717 348.918793,594.159058 
	C346.293945,593.451599 344.914001,592.807434 344.637115,589.858276 
	C337.410736,512.892517 330.100647,435.934631 322.814575,358.974487 
	C322.768066,358.483093 322.856354,357.978973 322.926544,356.599548 
	C330.146271,357.100220 337.369080,357.367706 344.537994,358.137482 
	C381.526398,362.109131 417.271912,370.816040 451.024963,386.795349 
	C480.841217,400.910889 507.713104,419.123627 529.435242,444.268494 
	C530.999146,446.078766 532.115173,448.953278 532.119446,451.335388 
	C532.258362,527.835083 532.235291,604.335083 532.225159,680.835083 
	C532.225037,681.954468 532.081055,683.073853 531.927856,685.306335 
	C501.041931,650.214417 462.081451,629.368835 419.440796,613.653015 
z"/>
<path fill="#018FD6" opacity="1.000000" stroke="none" 
	d="
M549.770630,639.999878 
	C549.770630,577.191589 549.800598,514.883301 549.696655,452.575226 
	C549.690369,448.813721 550.732727,445.998322 553.214111,443.205383 
	C577.012817,416.418823 606.278870,397.390045 638.833618,383.217163 
	C675.848206,367.102661 714.782227,359.042633 754.998779,356.827606 
	C756.143616,356.764526 757.294983,356.819611 758.955139,356.819611 
	C758.955139,358.382355 759.070618,359.802704 758.938660,361.199707 
	C751.781921,436.967102 744.591919,512.731384 737.469910,588.502014 
	C737.154175,591.861450 736.313049,593.531677 732.412903,594.309082 
	C688.615723,603.039185 646.503479,616.624146 607.525696,638.889282 
	C586.852417,650.698364 568.068848,664.908203 552.310669,682.900513 
	C551.812988,683.468750 551.213562,683.947754 549.770630,685.308594 
	C549.770630,669.640076 549.770630,655.070007 549.770630,639.999878 
z"/>
<path fill="#0591D7" opacity="1.000000" stroke="none" 
	d="
M596.536438,666.407104 
	C618.687622,650.361328 643.240540,639.019592 668.794617,629.691772 
	C694.622498,620.263916 721.026306,612.932373 748.260559,608.903564 
	C752.223572,608.317261 752.809631,606.305054 753.122192,602.975586 
	C759.440796,535.671387 765.851318,468.375885 772.246582,401.078918 
	C772.466125,398.768188 772.718567,396.460602 773.034119,393.387970 
	C777.961060,393.773987 782.656494,394.141846 788.045959,394.564087 
	C780.460022,478.846680 772.918335,562.637939 765.337463,646.864380 
	C707.625793,640.695190 651.599121,644.743408 597.324585,666.909424 
	C596.813782,666.753723 596.536438,666.407104 596.536438,666.407104 
z"/>
<path fill="#0591D7" opacity="1.000000" stroke="none" 
	d="
M484.887085,667.132202 
	C469.699280,662.320068 454.710541,656.711365 439.283569,652.856201 
	C403.588135,643.935974 367.238495,642.617798 330.672821,645.593079 
	C326.212799,645.955994 321.756561,646.365173 316.606171,646.813110 
	C309.046814,562.841858 301.502075,479.033112 293.908234,394.678833 
	C298.996887,394.216522 303.566040,393.801422 308.942535,393.312988 
	C315.764954,465.001617 322.556091,536.361694 329.323517,607.472656 
	C342.750732,610.374695 355.841370,612.773438 368.704041,616.063416 
	C410.042297,626.636780 449.644958,641.382751 485.087036,666.369385 
	C485.168182,666.789062 484.887085,667.132202 484.887085,667.132202 
z"/>
<path fill="#0591D7" opacity="1.000000" stroke="none" 
	d="
M485.309845,666.618408 
	C485.921692,666.771973 486.391876,667.096191 487.543488,667.890320 
	C486.233917,667.752991 485.711273,667.698181 485.037872,667.387817 
	C484.887085,667.132202 485.168182,666.789062 485.309845,666.618408 
z"/>
<path fill="#0591D7" opacity="1.000000" stroke="none" 
	d="
M596.951294,666.927979 
	C596.494934,667.267334 595.901123,667.432434 595.307373,667.597534 
	C595.542847,667.289978 595.778381,666.982361 596.275146,666.540955 
	C596.536438,666.407104 596.813782,666.753723 596.951294,666.927979 
z"/>
</svg>