<svg version="1.1" id="Layer_1" xmlns="http://www.w3.org/2000/svg" xmlns:xlink="http://www.w3.org/1999/xlink" x="0px" y="0px"
	 width="100%" viewBox="0 0 424 520" enable-background="new 0 0 424 520" xml:space="preserve">
<path fill="#018FD6" opacity="1.000000" stroke="none" 
	d="
M425.000000,189.000000 
	C425.000000,300.000000 425.000000,410.500000 425.000000,521.000000 
	C283.666656,521.000000 142.333328,521.000000 1.000000,521.000000 
	C1.000000,347.666656 1.000000,174.333328 1.000000,1.000000 
	C142.333328,1.000000 283.666656,1.000000 425.000000,1.000000 
	C425.000000,63.500000 425.000000,126.000000 425.000000,189.000000 
M59.295753,351.365692 
	C54.785709,351.630554 55.771416,354.524384 56.220306,357.417938 
	C64.443558,358.773499 72.429108,360.089874 80.852303,361.478424 
	C80.852303,358.243866 80.852303,356.501465 80.852303,355.847809 
	C73.921898,354.156799 67.483200,352.585754 61.862251,351.091644 
	C67.764595,350.538025 73.096642,348.816315 75.594444,342.837494 
	C78.472008,335.949615 78.462547,328.849243 75.602501,321.966797 
	C73.588112,317.119324 69.568489,314.542297 64.355782,314.089325 
	C58.895111,313.614868 54.116608,315.032135 50.825657,319.781616 
	C43.269978,330.685883 48.083771,346.523407 59.295753,351.365692 
M357.350159,198.054169 
	C360.990509,157.822021 364.630859,117.589867 368.281250,77.246994 
	C361.712250,76.493629 355.971680,75.835266 349.781708,75.125366 
	C350.386383,67.894096 350.962799,61.000404 351.594269,53.448517 
	C298.652863,54.498871 250.978516,67.646576 213.171814,106.794632 
	C175.341354,67.677414 127.683777,54.482483 74.729279,53.451309 
	C75.330536,61.057041 75.875328,67.948654 76.440468,75.097549 
	C70.072701,75.864677 64.202232,76.571899 58.015560,77.317215 
	C63.051392,133.139282 68.042656,188.467331 73.056114,244.041397 
	C82.759842,243.314255 91.998901,242.321899 101.261871,241.983093 
	C131.192535,240.888275 160.411469,244.719482 186.609955,259.994202 
	C197.420425,266.297119 207.885437,268.947174 219.955536,268.109375 
	C224.056915,267.824646 227.517548,267.132721 231.069061,264.847656 
	C236.783844,261.170746 242.806717,257.842194 249.021591,255.095459 
	C276.681305,242.871109 305.810333,240.253296 335.605225,242.530212 
	C341.366760,242.970520 347.110199,243.647461 353.246613,244.253220 
	C354.606110,228.810730 355.919708,213.889008 357.350159,198.054169 
M360.157013,239.660828 
	C359.776642,243.705795 359.396240,247.750778 359.044403,251.492477 
	C347.836670,250.473450 337.410950,249.163559 326.945984,248.642395 
	C296.459320,247.124115 266.917480,251.305359 240.309921,267.127289 
	C231.819138,272.176239 223.419037,274.654175 214.026154,274.341553 
	C207.462204,274.123108 199.624924,274.904694 194.603836,271.708740 
	C164.775787,252.722931 132.166901,246.848206 97.612335,248.770065 
	C87.540939,249.330231 77.507462,250.571976 67.133575,251.531143 
	C62.380379,199.048172 57.641907,146.727783 52.902218,94.393967 
	C45.486546,94.393967 38.728020,94.393967 31.574425,94.393967 
	C31.766510,96.808945 31.843382,98.939514 32.116940,101.044525 
	C38.961624,153.713531 45.873447,206.373947 52.593632,259.058807 
	C53.088642,262.939575 54.025650,264.580688 58.288006,265.295959 
	C99.657204,272.238251 141.000473,279.346039 182.288681,286.754761 
	C199.342346,289.814880 216.538055,290.871674 233.483185,288.213257 
	C275.084259,281.686768 316.511597,274.057831 358.029877,266.995941 
	C373.337372,264.392212 373.090179,264.516022 375.059570,248.757431 
	C379.726105,211.417511 384.682465,174.113846 389.513885,136.794495 
	C391.327667,122.784363 393.119995,108.771454 394.949463,94.547470 
	C387.530243,94.547470 380.498047,94.547470 373.363922,94.547470 
	C371.564819,114.357292 369.805267,133.756729 368.040710,153.155731 
	C365.445496,181.687332 362.846680,210.218628 360.157013,239.660828 
M200.058640,345.298218 
	C200.428513,340.302032 201.650253,335.180145 200.936539,330.343872 
	C200.172516,325.166626 195.262070,323.152985 190.108627,324.615845 
	C188.881119,324.964264 187.683960,325.419556 186.011429,325.980408 
	C186.011429,322.115936 186.011429,318.675812 186.011429,315.128387 
	C183.752609,315.128387 181.879044,315.128387 179.662445,315.128387 
	C179.662445,325.911560 179.607300,336.368530 179.754044,346.822693 
	C179.767624,347.788910 180.861374,349.214142 181.800385,349.616272 
	C187.858383,352.210297 195.055359,350.638733 200.058640,345.298218 
M296.934540,345.549011 
	C296.552521,346.893524 296.170502,348.238037 295.792450,349.568665 
	C300.485809,350.952942 303.364990,349.900696 304.005829,345.083527 
	C304.453613,341.717834 307.011993,341.950531 309.298126,342.216156 
	C311.949615,342.524200 315.815765,340.478088 316.680084,344.927887 
	C317.728638,350.326111 320.990814,350.814880 325.691284,349.518616 
	C321.945404,339.038818 318.295471,328.546356 314.368988,318.158417 
	C313.807770,316.673645 311.928741,314.774323 310.622803,314.745728 
	C309.368225,314.718201 307.453888,316.633972 306.884918,318.104248 
	C303.471710,326.924591 300.362885,335.862701 296.934540,345.549011 
M378.053406,341.374786 
	C378.067444,338.226807 378.462006,335.023895 378.017273,331.942108 
	C377.057434,325.291168 371.041290,322.203064 364.958832,324.976105 
	C363.787292,325.510254 362.722321,326.278137 361.608185,326.938202 
	C361.633087,326.582245 361.658020,326.226288 361.682953,325.870331 
	C359.918274,325.490662 358.153625,325.110962 356.178131,324.685883 
	C356.178131,336.907471 356.178131,348.335480 356.178131,359.683594 
	C358.346313,359.683594 360.221008,359.683594 362.601898,359.683594 
	C362.601898,356.379883 362.601898,353.449310 362.601898,350.489288 
	C371.998444,351.208344 374.927856,349.553375 378.053406,341.374786 
M350.982544,341.272186 
	C350.986511,338.125397 351.367249,334.923462 350.916412,331.843231 
	C349.963898,325.334717 343.768311,322.225708 337.786591,324.998749 
	C336.617859,325.540527 335.556580,326.314117 334.445740,326.980774 
	C334.476135,326.615967 334.506500,326.251129 334.536896,325.886322 
	C332.786621,325.513550 331.036346,325.140778 328.788940,324.662140 
	C328.788940,331.183807 328.788971,336.815918 328.788971,342.448029 
	C328.788971,348.204681 328.788940,353.961304 328.788940,359.671875 
	C331.299469,359.671875 333.173492,359.671875 335.366394,359.671875 
	C335.366394,356.346130 335.366394,353.405487 335.366394,350.442657 
	C344.783417,351.291290 347.789246,349.621124 350.982544,341.272186 
M110.311371,328.976715 
	C109.601730,332.018890 108.341080,335.053101 108.296944,338.104889 
	C108.204514,344.497009 111.165276,348.590820 116.116074,350.131470 
	C122.224831,352.032471 128.200638,349.777313 130.652252,344.645782 
	C133.554367,338.571289 131.984863,329.547485 127.448875,326.228455 
	C122.521515,322.622955 115.706337,323.499603 110.311371,328.976715 
M218.271790,350.783630 
	C225.695312,349.188721 228.607727,346.072510 229.052048,339.249054 
	C229.551636,331.576660 227.181778,326.725433 221.827896,324.868164 
	C217.080704,323.221344 212.433151,323.600525 208.867981,327.339722 
	C204.487762,331.933746 204.637573,337.693237 206.315994,343.301697 
	C207.909637,348.626923 212.163437,350.657410 218.271790,350.783630 
M239.729065,324.887115 
	C233.079529,327.621643 232.314697,333.255859 232.689117,339.370850 
	C232.997421,344.405914 235.024994,348.360535 240.144012,350.074707 
	C245.108749,351.737305 250.551178,350.440491 253.433548,346.964813 
	C256.826721,342.873199 257.324799,333.683105 254.172714,328.999268 
	C250.822372,324.020782 245.954300,323.267273 239.729065,324.887115 
M277.901581,341.607391 
	C276.602722,339.776031 275.303894,337.944641 274.196289,336.382935 
	C276.620789,332.714294 278.950989,329.188385 281.358093,325.546112 
	C271.818695,321.962799 272.497101,331.983643 267.200470,335.403381 
	C267.200470,328.114716 267.200470,321.608063 267.200470,315.061035 
	C264.796448,315.061035 263.045807,315.061035 261.176270,315.061035 
	C261.176270,326.819305 261.176270,338.317810 261.176270,349.730347 
	C263.330780,349.730347 265.094727,349.730347 267.516418,349.730347 
	C267.516418,346.299377 267.516418,343.132233 267.516418,339.965118 
	C267.930298,339.844818 268.344147,339.724548 268.758026,339.604248 
	C270.381348,342.195129 272.204071,344.684814 273.581604,347.400391 
	C275.689087,351.554993 278.880096,349.722107 282.579285,349.775665 
	C280.860718,346.808929 279.545807,344.539032 277.901581,341.607391 
M94.673546,344.100677 
	C90.762840,345.880005 88.953865,344.298523 88.886108,340.324860 
	C88.799576,335.249756 88.865120,330.171997 88.865120,325.227722 
	C86.079727,325.227722 84.190292,325.227722 82.032051,325.227722 
	C82.032051,330.257477 82.028496,334.903809 82.034882,339.550140 
	C82.036255,340.549316 82.010620,341.554382 82.104187,342.546661 
	C82.805374,349.982086 88.822945,353.023254 95.318199,349.214142 
	C96.277962,348.651276 97.135117,347.913391 97.090431,347.945862 
	C99.885811,348.909088 101.814400,349.573639 103.737373,350.236237 
	C103.737373,341.232300 103.737373,333.286377 103.737373,325.094910 
	C101.426010,325.094910 99.512428,325.094910 97.065384,325.094910 
	C97.065384,328.741760 97.282524,332.217529 96.995865,335.651215 
	C96.771317,338.340912 95.922836,340.978516 94.673546,344.100677 
M161.003555,339.129211 
	C165.457825,339.129211 169.912109,339.129211 174.522766,339.129211 
	C175.371796,334.021667 175.843857,329.491760 171.750259,326.232910 
	C168.013336,323.258057 163.628281,323.379425 159.428802,325.176819 
	C154.258881,327.389496 152.951324,331.939758 152.935959,337.083710 
	C152.920944,342.117126 153.737534,346.831055 158.694641,349.481995 
	C163.320175,351.955627 169.702469,350.990356 173.925491,347.411407 
	C173.218018,344.752106 172.128967,343.863495 168.988571,344.807617 
	C163.074112,346.585724 160.442856,344.670044 161.003555,339.129211 
M136.843857,331.032318 
	C136.966049,334.343994 137.155930,337.654816 137.197617,340.967499 
	C137.318756,350.592896 142.070877,353.360016 150.858032,348.620483 
	C150.496078,347.293365 150.119659,345.913208 149.677216,344.291016 
	C144.908966,346.006622 143.774948,343.688965 143.950912,339.701111 
	C144.081314,336.745514 143.976562,333.779572 143.976562,330.716064 
	C146.183350,330.444458 147.949127,330.227142 150.036163,329.970276 
	C149.958450,328.212189 149.888992,326.641052 149.822693,325.141205 
	C147.651276,324.873230 145.909882,324.658325 144.178589,324.444672 
	C144.018219,322.311890 143.882843,320.511475 143.758804,318.861908 
	C137.219696,317.391846 137.401642,324.192688 134.036774,326.588257 
	C133.886215,326.695435 135.392975,329.130615 136.843857,331.032318 
z"/>
<path fill="#F9FCFE" opacity="1.000000" stroke="none" 
	d="
M357.291748,198.510742 
	C355.919708,213.889008 354.606110,228.810730 353.246613,244.253220 
	C347.110199,243.647461 341.366760,242.970520 335.605225,242.530212 
	C305.810333,240.253296 276.681305,242.871109 249.021591,255.095459 
	C242.806717,257.842194 236.783844,261.170746 231.069061,264.847656 
	C227.517548,267.132721 224.056915,267.824646 219.955536,268.109375 
	C207.885437,268.947174 197.420425,266.297119 186.609955,259.994202 
	C160.411469,244.719482 131.192535,240.888275 101.261871,241.983093 
	C91.998901,242.321899 82.759842,243.314255 73.056114,244.041397 
	C68.042656,188.467331 63.051392,133.139282 58.015560,77.317215 
	C64.202232,76.571899 70.072701,75.864677 76.440468,75.097549 
	C75.875328,67.948654 75.330536,61.057041 74.729279,53.451309 
	C127.683777,54.482483 175.341354,67.677414 213.171814,106.794632 
	C250.978516,67.646576 298.652863,54.498871 351.594269,53.448517 
	C350.962799,61.000404 350.386383,67.894096 349.781708,75.125366 
	C355.971680,75.835266 361.712250,76.493629 368.281250,77.246994 
	C364.630859,117.589867 360.990509,157.822021 357.291748,198.510742 
M220.960938,113.631004 
	C220.061035,116.176155 218.386200,118.718391 218.376633,121.266891 
	C218.215210,164.235504 218.261139,207.204880 218.261093,250.174088 
	C218.261093,251.597382 218.261093,253.020691 218.261093,254.745682 
	C225.512177,248.558792 231.910858,242.282089 239.103714,237.109787 
	C264.293396,218.996170 293.011139,209.263550 323.069275,203.047684 
	C326.592590,202.319092 327.814270,201.036255 328.149078,197.318130 
	C331.164337,163.829147 334.468231,130.366211 337.656219,96.892670 
	C338.689850,86.040085 339.631348,75.178726 340.731232,63.038330 
	C328.787964,64.762985 317.532928,65.825592 306.523193,68.083900 
	C273.848358,74.786072 244.699982,88.427071 220.960938,113.631004 
M182.078094,233.417786 
	C190.674515,240.318130 199.270920,247.218491 208.014160,254.236694 
	C208.014160,252.730408 208.014145,250.951645 208.014145,249.172867 
	C208.014130,208.195618 207.777878,167.215790 208.225784,126.243431 
	C208.309158,118.617432 205.819260,113.514389 200.570251,108.537247 
	C176.308838,85.532471 147.087158,72.907654 114.635735,67.064629 
	C105.238586,65.372620 95.679642,64.579231 85.681679,63.308678 
	C85.920517,66.995422 86.016495,69.471107 86.250038,71.933739 
	C90.210335,113.694435 94.248917,155.447922 98.062485,197.221954 
	C98.426201,201.206055 99.995956,202.350067 103.673111,203.110107 
	C131.229797,208.805832 157.562256,217.796417 182.078094,233.417786 
M81.825363,128.747681 
	C80.410454,114.373207 78.995544,99.998741 77.531242,85.122467 
	C74.465553,85.478470 71.777199,85.790649 68.800117,86.136360 
	C73.237175,135.347321 77.625259,184.015121 82.062981,233.233429 
	C115.180161,229.959305 147.360046,231.964706 178.514709,243.821823 
	C176.477600,241.809860 174.311783,240.324448 172.055740,238.991730 
	C147.675491,224.589417 121.124603,216.289688 93.446373,211.256668 
	C90.841003,210.782928 89.347992,210.359436 89.069870,207.215332 
	C86.782410,181.356110 84.299576,155.514160 81.825363,128.747681 
M349.242950,176.832901 
	C351.986786,146.715317 354.730652,116.597725 357.503082,86.166306 
	C354.354858,85.779724 351.800232,85.466042 348.724335,85.088341 
	C344.698242,127.280327 340.722748,168.942490 336.760742,210.463135 
	C304.612366,216.229965 274.398193,225.540878 248.417892,242.637726 
	C263.207123,239.559402 278.925751,234.966599 294.946960,233.323517 
	C311.040771,231.673004 327.435944,232.960571 344.278564,232.960571 
	C345.914734,214.452499 347.536987,196.101685 349.242950,176.832901 
z"/>
<path fill="#FBFDFE" opacity="1.000000" stroke="none" 
	d="
M360.203186,239.205444 
	C362.846680,210.218628 365.445496,181.687332 368.040710,153.155731 
	C369.805267,133.756729 371.564819,114.357292 373.363922,94.547470 
	C380.498047,94.547470 387.530243,94.547470 394.949463,94.547470 
	C393.119995,108.771454 391.327667,122.784363 389.513885,136.794495 
	C384.682465,174.113846 379.726105,211.417511 375.059570,248.757431 
	C373.090179,264.516022 373.337372,264.392212 358.029877,266.995941 
	C316.511597,274.057831 275.084259,281.686768 233.483185,288.213257 
	C216.538055,290.871674 199.342346,289.814880 182.288681,286.754761 
	C141.000473,279.346039 99.657204,272.238251 58.288006,265.295959 
	C54.025650,264.580688 53.088642,262.939575 52.593632,259.058807 
	C45.873447,206.373947 38.961624,153.713531 32.116940,101.044525 
	C31.843382,98.939514 31.766510,96.808945 31.574425,94.393967 
	C38.728020,94.393967 45.486546,94.393967 52.902218,94.393967 
	C57.641907,146.727783 62.380379,199.048172 67.133575,251.531143 
	C77.507462,250.571976 87.540939,249.330231 97.612335,248.770065 
	C132.166901,246.848206 164.775787,252.722931 194.603836,271.708740 
	C199.624924,274.904694 207.462204,274.123108 214.026154,274.341553 
	C223.419037,274.654175 231.819138,272.176239 240.309921,267.127289 
	C266.917480,251.305359 296.459320,247.124115 326.945984,248.642395 
	C337.410950,249.163559 347.836670,250.473450 359.044403,251.492477 
	C359.396240,247.750778 359.776642,243.705795 360.203186,239.205444 
z"/>
<path fill="#F7FBFE" opacity="1.000000" stroke="none" 
	d="
M60.288124,350.980499 
	C48.083771,346.523407 43.269978,330.685883 50.825657,319.781616 
	C54.116608,315.032135 58.895111,313.614868 64.355782,314.089325 
	C69.568489,314.542297 73.588112,317.119324 75.602501,321.966797 
	C78.462547,328.849243 78.472008,335.949615 75.594444,342.837494 
	C73.096642,348.816315 67.764595,350.538025 61.359558,351.038208 
	C60.667366,350.966125 60.477783,350.964722 60.288124,350.980499 
M55.469997,337.615051 
	C56.598476,341.870453 58.738701,345.083862 63.748856,344.320068 
	C68.695396,343.565979 69.946342,339.666046 70.010246,335.467987 
	C70.062508,332.034363 70.185837,328.262421 68.867088,325.260010 
	C67.897110,323.051666 64.611931,320.505585 62.425117,320.564972 
	C60.211918,320.625092 56.962852,323.311249 56.173615,325.553253 
	C54.967083,328.980713 55.483044,333.014526 55.469997,337.615051 
z"/>
<path fill="#F9FCFE" opacity="1.000000" stroke="none" 
	d="
M199.858643,345.626221 
	C195.055359,350.638733 187.858383,352.210297 181.800385,349.616272 
	C180.861374,349.214142 179.767624,347.788910 179.754044,346.822693 
	C179.607300,336.368530 179.662445,325.911560 179.662445,315.128387 
	C181.879044,315.128387 183.752609,315.128387 186.011429,315.128387 
	C186.011429,318.675812 186.011429,322.115936 186.011429,325.980408 
	C187.683960,325.419556 188.881119,324.964264 190.108627,324.615845 
	C195.262070,323.152985 200.172516,325.166626 200.936539,330.343872 
	C201.650253,335.180145 200.428513,340.302032 199.858643,345.626221 
M195.167572,335.703949 
	C194.290161,330.602844 191.950455,328.669067 188.657608,330.323395 
	C186.173325,331.571503 184.592987,343.371826 187.021515,344.314545 
	C188.789261,345.000763 192.056366,344.627716 193.209061,343.385345 
	C194.648590,341.833801 194.604309,338.905579 195.167572,335.703949 
z"/>
<path fill="#F7FBFE" opacity="1.000000" stroke="none" 
	d="
M297.043335,345.155212 
	C300.362885,335.862701 303.471710,326.924591 306.884918,318.104248 
	C307.453888,316.633972 309.368225,314.718201 310.622803,314.745728 
	C311.928741,314.774323 313.807770,316.673645 314.368988,318.158417 
	C318.295471,328.546356 321.945404,339.038818 325.691284,349.518616 
	C320.990814,350.814880 317.728638,350.326111 316.680084,344.927887 
	C315.815765,340.478088 311.949615,342.524200 309.298126,342.216156 
	C307.011993,341.950531 304.453613,341.717834 304.005829,345.083527 
	C303.364990,349.900696 300.485809,350.952942 295.792450,349.568665 
	C296.170502,348.238037 296.552521,346.893524 297.043335,345.155212 
M312.950317,332.498047 
	C312.159882,329.931458 311.369446,327.364838 310.398621,324.212463 
	C309.164001,328.650513 308.101562,332.469757 307.039124,336.289001 
	C309.152405,334.861603 314.937286,340.702240 312.950317,332.498047 
z"/>
<path fill="#FAFDFE" opacity="1.000000" stroke="none" 
	d="
M377.990112,341.769043 
	C374.927856,349.553375 371.998444,351.208344 362.601898,350.489288 
	C362.601898,353.449310 362.601898,356.379883 362.601898,359.683594 
	C360.221008,359.683594 358.346313,359.683594 356.178131,359.683594 
	C356.178131,348.335480 356.178131,336.907471 356.178131,324.685883 
	C358.153625,325.110962 359.918274,325.490662 361.682953,325.870331 
	C361.658020,326.226288 361.633087,326.582245 361.608185,326.938202 
	C362.722321,326.278137 363.787292,325.510254 364.958832,324.976105 
	C371.041290,322.203064 377.057434,325.291168 378.017273,331.942108 
	C378.462006,335.023895 378.067444,338.226807 377.990112,341.769043 
M362.329193,336.776184 
	C362.329529,338.102478 362.084839,339.489502 362.394684,340.739044 
	C362.750702,342.174744 363.528503,344.597107 364.244751,344.641785 
	C366.174713,344.762268 368.988892,344.461884 369.941376,343.193756 
	C371.285126,341.404846 371.697021,338.600830 371.727570,336.220734 
	C371.765625,333.256897 371.353485,329.917938 367.166718,329.842957 
	C363.085754,329.769867 362.407654,332.665741 362.329193,336.776184 
z"/>
<path fill="#FAFDFE" opacity="1.000000" stroke="none" 
	d="
M350.916016,341.661255 
	C347.789246,349.621124 344.783417,351.291290 335.366394,350.442657 
	C335.366394,353.405487 335.366394,356.346130 335.366394,359.671875 
	C333.173492,359.671875 331.299469,359.671875 328.788940,359.671875 
	C328.788940,353.961304 328.788971,348.204681 328.788971,342.448029 
	C328.788971,336.815918 328.788940,331.183807 328.788940,324.662140 
	C331.036346,325.140778 332.786621,325.513550 334.536896,325.886322 
	C334.506500,326.251129 334.476135,326.615967 334.445740,326.980774 
	C335.556580,326.314117 336.617859,325.540527 337.786591,324.998749 
	C343.768311,322.225708 349.963898,325.334717 350.916412,331.843231 
	C351.367249,334.923462 350.986511,338.125397 350.916016,341.661255 
M335.258636,342.884247 
	C338.633423,346.220581 342.745636,345.692108 343.899078,341.477905 
	C344.571960,339.019409 344.737244,336.126526 344.089539,333.707947 
	C343.671478,332.146820 341.164856,329.890808 339.956482,330.094604 
	C338.218109,330.387756 336.015839,332.377197 335.451813,334.111145 
	C334.669464,336.516174 335.223236,339.355896 335.258636,342.884247 
z"/>
<path fill="#F4FAFD" opacity="1.000000" stroke="none" 
	d="
M110.542297,328.675049 
	C115.706337,323.499603 122.521515,322.622955 127.448875,326.228455 
	C131.984863,329.547485 133.554367,338.571289 130.652252,344.645782 
	C128.200638,349.777313 122.224831,352.032471 116.116074,350.131470 
	C111.165276,348.590820 108.204514,344.497009 108.296944,338.104889 
	C108.341080,335.053101 109.601730,332.018890 110.542297,328.675049 
M118.886887,344.924072 
	C124.550034,344.575928 127.262817,338.919678 124.358948,332.877106 
	C123.715034,331.537201 121.697906,329.981140 120.400604,330.055298 
	C118.815392,330.145966 116.481575,331.527191 115.947495,332.917389 
	C114.354889,337.062897 114.219666,341.339874 118.886887,344.924072 
z"/>
<path fill="#F4FAFD" opacity="1.000000" stroke="none" 
	d="
M217.869202,350.797974 
	C212.163437,350.657410 207.909637,348.626923 206.315994,343.301697 
	C204.637573,337.693237 204.487762,331.933746 208.867981,327.339722 
	C212.433151,323.600525 217.080704,323.221344 221.827896,324.868164 
	C227.181778,326.725433 229.551636,331.576660 229.052048,339.249054 
	C228.607727,346.072510 225.695312,349.188721 217.869202,350.797974 
M218.337402,329.905121 
	C214.847473,329.423584 212.494843,331.267975 212.585007,334.417572 
	C212.681351,337.782623 214.114151,341.109406 214.963562,344.452911 
	C217.096786,343.865112 220.017288,343.945160 221.199982,342.550995 
	C223.690903,339.614685 222.228088,333.103210 218.337402,329.905121 
z"/>
<path fill="#F4FAFD" opacity="1.000000" stroke="none" 
	d="
M240.110443,324.769043 
	C245.954300,323.267273 250.822372,324.020782 254.172714,328.999268 
	C257.324799,333.683105 256.826721,342.873199 253.433548,346.964813 
	C250.551178,350.440491 245.108749,351.737305 240.144012,350.074707 
	C235.024994,348.360535 232.997421,344.405914 232.689117,339.370850 
	C232.314697,333.255859 233.079529,327.621643 240.110443,324.769043 
M242.906342,330.018341 
	C239.018646,333.078247 237.713699,339.640961 240.895081,343.016998 
	C242.069733,344.263550 246.553574,344.587433 246.645386,344.324738 
	C247.772507,341.099365 248.809875,337.706848 248.961487,334.316895 
	C249.096527,331.297302 247.018692,329.533447 242.906342,330.018341 
z"/>
<path fill="#FAFDFE" opacity="1.000000" stroke="none" 
	d="
M278.066254,341.938263 
	C279.545807,344.539032 280.860718,346.808929 282.579285,349.775665 
	C278.880096,349.722107 275.689087,351.554993 273.581604,347.400391 
	C272.204071,344.684814 270.381348,342.195129 268.758026,339.604248 
	C268.344147,339.724548 267.930298,339.844818 267.516418,339.965118 
	C267.516418,343.132233 267.516418,346.299377 267.516418,349.730347 
	C265.094727,349.730347 263.330780,349.730347 261.176270,349.730347 
	C261.176270,338.317810 261.176270,326.819305 261.176270,315.061035 
	C263.045807,315.061035 264.796448,315.061035 267.200470,315.061035 
	C267.200470,321.608063 267.200470,328.114716 267.200470,335.403381 
	C272.497101,331.983643 271.818695,321.962799 281.358093,325.546112 
	C278.950989,329.188385 276.620789,332.714294 274.196289,336.382935 
	C275.303894,337.944641 276.602722,339.776031 278.066254,341.938263 
z"/>
<path fill="#F2F9FD" opacity="1.000000" stroke="none" 
	d="
M95.012550,343.869995 
	C95.922836,340.978516 96.771317,338.340912 96.995865,335.651215 
	C97.282524,332.217529 97.065384,328.741760 97.065384,325.094910 
	C99.512428,325.094910 101.426010,325.094910 103.737373,325.094910 
	C103.737373,333.286377 103.737373,341.232300 103.737373,350.236237 
	C101.814400,349.573639 99.885811,348.909088 97.090431,347.945862 
	C97.135117,347.913391 96.277962,348.651276 95.318199,349.214142 
	C88.822945,353.023254 82.805374,349.982086 82.104187,342.546661 
	C82.010620,341.554382 82.036255,340.549316 82.034882,339.550140 
	C82.028496,334.903809 82.032051,330.257477 82.032051,325.227722 
	C84.190292,325.227722 86.079727,325.227722 88.865120,325.227722 
	C88.865120,330.171997 88.799576,335.249756 88.886108,340.324860 
	C88.953865,344.298523 90.762840,345.880005 95.012550,343.869995 
z"/>
<path fill="#F4FAFD" opacity="1.000000" stroke="none" 
	d="
M160.581482,339.271729 
	C160.442856,344.670044 163.074112,346.585724 168.988571,344.807617 
	C172.128967,343.863495 173.218018,344.752106 173.925491,347.411407 
	C169.702469,350.990356 163.320175,351.955627 158.694641,349.481995 
	C153.737534,346.831055 152.920944,342.117126 152.935959,337.083710 
	C152.951324,331.939758 154.258881,327.389496 159.428802,325.176819 
	C163.628281,323.379425 168.013336,323.258057 171.750259,326.232910 
	C175.843857,329.491760 175.371796,334.021667 174.522766,339.129211 
	C169.912109,339.129211 165.457825,339.129211 160.581482,339.271729 
M162.400192,330.000610 
	C161.459427,331.355255 160.518661,332.709900 159.114349,334.732056 
	C163.015808,334.732056 165.861435,334.732056 168.832275,334.732056 
	C168.975281,330.509552 167.134750,328.873566 162.400192,330.000610 
z"/>
<path fill="#F4FAFD" opacity="1.000000" stroke="none" 
	d="
M136.485825,330.756897 
	C135.392975,329.130615 133.886215,326.695435 134.036774,326.588257 
	C137.401642,324.192688 137.219696,317.391846 143.758804,318.861908 
	C143.882843,320.511475 144.018219,322.311890 144.178589,324.444672 
	C145.909882,324.658325 147.651276,324.873230 149.822693,325.141205 
	C149.888992,326.641052 149.958450,328.212189 150.036163,329.970276 
	C147.949127,330.227142 146.183350,330.444458 143.976562,330.716064 
	C143.976562,333.779572 144.081314,336.745514 143.950912,339.701111 
	C143.774948,343.688965 144.908966,346.006622 149.677216,344.291016 
	C150.119659,345.913208 150.496078,347.293365 150.858032,348.620483 
	C142.070877,353.360016 137.318756,350.592896 137.197617,340.967499 
	C137.155930,337.654816 136.966049,334.343994 136.485825,330.756897 
z"/>
<path fill="#F2F9FD" opacity="1.000000" stroke="none" 
	d="
M59.791939,351.173096 
	C60.477783,350.964722 60.667366,350.966125 60.950691,350.999756 
	C67.483200,352.585754 73.921898,354.156799 80.852303,355.847809 
	C80.852303,356.501465 80.852303,358.243866 80.852303,361.478424 
	C72.429108,360.089874 64.443558,358.773499 56.220306,357.417938 
	C55.771416,354.524384 54.785709,351.630554 59.791939,351.173096 
z"/>
<path fill="#0290D6" opacity="1.000000" stroke="none" 
	d="
M221.206482,113.356537 
	C244.699982,88.427071 273.848358,74.786072 306.523193,68.083900 
	C317.532928,65.825592 328.787964,64.762985 340.731232,63.038330 
	C339.631348,75.178726 338.689850,86.040085 337.656219,96.892670 
	C334.468231,130.366211 331.164337,163.829147 328.149078,197.318130 
	C327.814270,201.036255 326.592590,202.319092 323.069275,203.047684 
	C293.011139,209.263550 264.293396,218.996170 239.103714,237.109787 
	C231.910858,242.282089 225.512177,248.558792 218.261093,254.745682 
	C218.261093,253.020691 218.261093,251.597382 218.261093,250.174088 
	C218.261139,207.204880 218.215210,164.235504 218.376633,121.266891 
	C218.386200,118.718391 220.061035,116.176155 221.206482,113.356537 
z"/>
<path fill="#018FD6" opacity="1.000000" stroke="none" 
	d="
M181.775085,233.222168 
	C157.562256,217.796417 131.229797,208.805832 103.673111,203.110107 
	C99.995956,202.350067 98.426201,201.206055 98.062485,197.221954 
	C94.248917,155.447922 90.210335,113.694435 86.250038,71.933739 
	C86.016495,69.471107 85.920517,66.995422 85.681679,63.308678 
	C95.679642,64.579231 105.238586,65.372620 114.635735,67.064629 
	C147.087158,72.907654 176.308838,85.532471 200.570251,108.537247 
	C205.819260,113.514389 208.309158,118.617432 208.225784,126.243431 
	C207.777878,167.215790 208.014130,208.195618 208.014145,249.172867 
	C208.014145,250.951645 208.014160,252.730408 208.014160,254.236694 
	C199.270920,247.218491 190.674515,240.318130 181.775085,233.222168 
z"/>
<path fill="#0792D7" opacity="1.000000" stroke="none" 
	d="
M81.850677,129.207336 
	C84.299576,155.514160 86.782410,181.356110 89.069870,207.215332 
	C89.347992,210.359436 90.841003,210.782928 93.446373,211.256668 
	C121.124603,216.289688 147.675491,224.589417 172.055740,238.991730 
	C174.311783,240.324448 176.477600,241.809860 178.514709,243.821823 
	C147.360046,231.964706 115.180161,229.959305 82.062981,233.233429 
	C77.625259,184.015121 73.237175,135.347321 68.800117,86.136360 
	C71.777199,85.790649 74.465553,85.478470 77.531242,85.122467 
	C78.995544,99.998741 80.410454,114.373207 81.850677,129.207336 
z"/>
<path fill="#0792D7" opacity="1.000000" stroke="none" 
	d="
M349.201111,177.291901 
	C347.536987,196.101685 345.914734,214.452499 344.278564,232.960571 
	C327.435944,232.960571 311.040771,231.673004 294.946960,233.323517 
	C278.925751,234.966599 263.207123,239.559402 248.417892,242.637726 
	C274.398193,225.540878 304.612366,216.229965 336.760742,210.463135 
	C340.722748,168.942490 344.698242,127.280327 348.724335,85.088341 
	C351.800232,85.466042 354.354858,85.779724 357.503082,86.166306 
	C354.730652,116.597725 351.986786,146.715317 349.201111,177.291901 
z"/>
<path fill="#0792D7" opacity="1.000000" stroke="none" 
	d="
M55.368885,337.203003 
	C55.483044,333.014526 54.967083,328.980713 56.173615,325.553253 
	C56.962852,323.311249 60.211918,320.625092 62.425117,320.564972 
	C64.611931,320.505585 67.897110,323.051666 68.867088,325.260010 
	C70.185837,328.262421 70.062508,332.034363 70.010246,335.467987 
	C69.946342,339.666046 68.695396,343.565979 63.748856,344.320068 
	C58.738701,345.083862 56.598476,341.870453 55.368885,337.203003 
z"/>
<path fill="#0993D7" opacity="1.000000" stroke="none" 
	d="
M195.184113,336.137817 
	C194.604309,338.905579 194.648590,341.833801 193.209061,343.385345 
	C192.056366,344.627716 188.789261,345.000763 187.021515,344.314545 
	C184.592987,343.371826 186.173325,331.571503 188.657608,330.323395 
	C191.950455,328.669067 194.290161,330.602844 195.184113,336.137817 
z"/>
<path fill="#219DDB" opacity="1.000000" stroke="none" 
	d="
M313.044373,332.883911 
	C314.937286,340.702240 309.152405,334.861603 307.039124,336.289001 
	C308.101562,332.469757 309.164001,328.650513 310.398621,324.212463 
	C311.369446,327.364838 312.159882,329.931458 313.044373,332.883911 
z"/>
<path fill="#1297D9" opacity="1.000000" stroke="none" 
	d="
M362.330566,336.346985 
	C362.407654,332.665741 363.085754,329.769867 367.166718,329.842957 
	C371.353485,329.917938 371.765625,333.256897 371.727570,336.220734 
	C371.697021,338.600830 371.285126,341.404846 369.941376,343.193756 
	C368.988892,344.461884 366.174713,344.762268 364.244751,344.641785 
	C363.528503,344.597107 362.750702,342.174744 362.394684,340.739044 
	C362.084839,339.489502 362.329529,338.102478 362.330566,336.346985 
z"/>
<path fill="#1297D9" opacity="1.000000" stroke="none" 
	d="
M335.231812,342.446869 
	C335.223236,339.355896 334.669464,336.516174 335.451813,334.111145 
	C336.015839,332.377197 338.218109,330.387756 339.956482,330.094604 
	C341.164856,329.890808 343.671478,332.146820 344.089539,333.707947 
	C344.737244,336.126526 344.571960,339.019409 343.899078,341.477905 
	C342.745636,345.692108 338.633423,346.220581 335.231812,342.446869 
z"/>
<path fill="#0993D7" opacity="1.000000" stroke="none" 
	d="
M118.507492,344.787476 
	C114.219666,341.339874 114.354889,337.062897 115.947495,332.917389 
	C116.481575,331.527191 118.815392,330.145966 120.400604,330.055298 
	C121.697906,329.981140 123.715034,331.537201 124.358948,332.877106 
	C127.262817,338.919678 124.550034,344.575928 118.507492,344.787476 
z"/>
<path fill="#0993D7" opacity="1.000000" stroke="none" 
	d="
M218.741943,329.992859 
	C222.228088,333.103210 223.690903,339.614685 221.199982,342.550995 
	C220.017288,343.945160 217.096786,343.865112 214.963562,344.452911 
	C214.114151,341.109406 212.681351,337.782623 212.585007,334.417572 
	C212.494843,331.267975 214.847473,329.423584 218.741943,329.992859 
z"/>
<path fill="#0993D7" opacity="1.000000" stroke="none" 
	d="
M243.311371,329.948914 
	C247.018692,329.533447 249.096527,331.297302 248.961487,334.316895 
	C248.809875,337.706848 247.772507,341.099365 246.645386,344.324738 
	C246.553574,344.587433 242.069733,344.263550 240.895081,343.016998 
	C237.713699,339.640961 239.018646,333.078247 243.311371,329.948914 
z"/>
<path fill="#0993D7" opacity="1.000000" stroke="none" 
	d="
M162.761642,329.873596 
	C167.134750,328.873566 168.975281,330.509552 168.832275,334.732056 
	C165.861435,334.732056 163.015808,334.732056 159.114349,334.732056 
	C160.518661,332.709900 161.459427,331.355255 162.761642,329.873596 
z"/>
</svg>